<svg width="281" height="101" viewBox="0 0 281 101" fill="none" xmlns="http://www.w3.org/2000/svg">
<path d="M16.6665 5.55565C16.6665 2.48735 19.1539 0 22.2222 0H43.8892C46.9575 0 49.4449 2.48735 49.4449 5.55565V5.55565C49.4449 8.62395 46.9575 11.1113 43.8892 11.1113H22.2222C19.1538 11.1113 16.6665 8.62395 16.6665 5.55565V5.55565Z" fill="#0B9ED9"/>
<path d="M3.88867 20.3701C3.88867 17.3018 6.37602 14.8145 9.44433 14.8145H51.1117C54.18 14.8145 56.6674 17.3018 56.6674 20.3701V20.3701C56.6674 23.4384 54.18 25.9258 51.1117 25.9258H9.44433C6.37603 25.9258 3.88867 23.4384 3.88867 20.3701V20.3701Z" fill="#0B9ED9"/>
<path d="M34.0747 35.1865C34.0747 32.1182 36.5621 29.6309 39.6304 29.6309H71.2976C74.3659 29.6309 76.8532 32.1182 76.8532 35.1865V35.1865C76.8532 38.2548 74.3659 40.7422 71.2976 40.7422H39.6304C36.5621 40.7422 34.0747 38.2548 34.0747 35.1865V35.1865Z" fill="#FF5530"/>
<path d="M14.8149 50.001C14.8149 46.9327 17.3023 44.4453 20.3706 44.4453H45.5562C48.6245 44.4453 51.1119 46.9327 51.1119 50.001V50.001C51.1119 53.0693 48.6245 55.5566 45.5562 55.5566H20.3706C17.3023 55.5566 14.8149 53.0693 14.8149 50.001V50.001Z" fill="#FF5530"/>
<path d="M69.6309 50.001C69.6309 46.9327 72.1182 44.4453 75.1865 44.4453H87.5941C90.6624 44.4453 93.1498 46.9327 93.1498 50.001V50.001C93.1498 53.0693 90.6624 55.5566 87.5941 55.5566H75.1865C72.1182 55.5566 69.6309 53.0693 69.6309 50.001V50.001Z" fill="#34C759"/>
<path d="M65.0015 64.8154C65.0015 61.7471 67.4888 59.2598 70.5571 59.2598H82.9647C86.033 59.2598 88.5204 61.7471 88.5204 64.8154V64.8154C88.5204 67.8837 86.033 70.3711 82.9647 70.3711H70.5571C67.4888 70.3711 65.0015 67.8837 65.0015 64.8154V64.8154Z" fill="#0B9ED9"/>
<path d="M36.2969 79.6318C36.2969 76.5635 38.7842 74.0762 41.8525 74.0762H59.2602C62.3285 74.0762 64.8159 76.5635 64.8159 79.6318V79.6318C64.8159 82.7001 62.3285 85.1875 59.2602 85.1875H41.8525C38.7842 85.1875 36.2969 82.7001 36.2969 79.6318V79.6318Z" fill="#FF5530"/>
<path d="M5.55568 29.6309C8.62398 29.6309 11.1113 32.1182 11.1113 35.1865L11.1113 94.4468C11.1113 97.5151 8.62398 100.002 5.55567 100.002V100.002C2.48737 100.002 2.46892e-05 97.5151 2.48234e-05 94.4468L2.74137e-05 35.1865C2.75478e-05 32.1182 2.48738 29.6309 5.55568 29.6309V29.6309Z" fill="#FF5530"/>
<path d="M41.1118 64.8154C41.1118 61.7471 43.5992 59.2598 46.6675 59.2598H55.7417C58.81 59.2598 61.2974 61.7471 61.2974 64.8154V64.8154C61.2974 67.8837 58.81 70.3711 55.7417 70.3711H46.6675C43.5992 70.3711 41.1118 67.8837 41.1118 64.8154V64.8154Z" fill="#FF5530"/>
<path d="M14.8149 94.4463C14.8149 91.378 17.3023 88.8906 20.3706 88.8906H37.7783C40.8466 88.8906 43.334 91.378 43.334 94.4463V94.4463C43.334 97.5146 40.8466 100.002 37.7783 100.002H20.3706C17.3023 100.002 14.8149 97.5146 14.8149 94.4463V94.4463Z" fill="#FF5530"/>
<path d="M54.8154 50.001C54.8154 46.9327 57.3028 44.4453 60.3711 44.4453V44.4453C63.4394 44.4453 65.9267 46.9327 65.9267 50.001V50.001C65.9267 53.0693 63.4394 55.5566 60.3711 55.5566V55.5566C57.3028 55.5566 54.8154 53.0693 54.8154 50.001V50.001Z" fill="#0B9ED9"/>
<path d="M60.3716 20.3701C60.3716 17.3018 62.8589 14.8145 65.9272 14.8145H78.3348C81.4032 14.8145 83.8905 17.3018 83.8905 20.3701V20.3701C83.8905 23.4384 81.4032 25.9258 78.3349 25.9258H65.9272C62.8589 25.9258 60.3716 23.4384 60.3716 20.3701V20.3701Z" fill="#34C759"/>
<path d="M53.1494 5.55565C53.1494 2.48735 55.6368 0 58.7051 0V0C61.7734 0 64.2607 2.48735 64.2607 5.55565V5.55565C64.2607 8.62395 61.7734 11.1113 58.7051 11.1113V11.1113C55.6368 11.1113 53.1494 8.62395 53.1494 5.55565V5.55565Z" fill="#34C759"/>
<path d="M14.8149 35.1865C14.8149 32.1182 17.3023 29.6309 20.3706 29.6309H24.8151C27.8834 29.6309 30.3708 32.1182 30.3708 35.1865V35.1865C30.3708 38.2548 27.8834 40.7422 24.8151 40.7422H20.3706C17.3023 40.7422 14.8149 38.2548 14.8149 35.1865V35.1865Z" fill="#0B9ED9"/>
<path d="M80.5571 35.1865C80.5571 32.1182 83.0445 29.6309 86.1128 29.6309V29.6309C89.1811 29.6309 91.6684 32.1182 91.6684 35.1865V35.1865C91.6684 38.2548 89.1811 40.7422 86.1128 40.7422V40.7422C83.0445 40.7422 80.5571 38.2548 80.5571 35.1865V35.1865Z" fill="#0B9ED9"/>
<path d="M68.52 79.6318C68.52 76.5635 71.0074 74.0762 74.0757 74.0762V74.0762C77.144 74.0762 79.6313 76.5635 79.6313 79.6318V79.6318C79.6313 82.7001 77.144 85.1875 74.0757 85.1875V85.1875C71.0074 85.1875 68.52 82.7001 68.52 79.6318V79.6318Z" fill="#34C759"/>
<path d="M47.4082 94.4463C47.4082 91.378 49.8956 88.8906 52.9639 88.8906V88.8906C56.0322 88.8906 58.5195 91.378 58.5195 94.4463V94.4463C58.5195 97.5146 56.0322 100.002 52.9639 100.002V100.002C49.8956 100.002 47.4082 97.5146 47.4082 94.4463V94.4463Z" fill="#34C759"/>
<path d="M127.261 48.3284C124.917 48.3284 122.828 47.8382 120.996 46.8578C119.163 45.8348 117.713 44.4495 116.648 42.7019C115.625 40.9543 115.113 38.9723 115.113 36.7558V27.9325C115.113 25.716 115.646 23.7339 116.712 21.9863C117.777 20.2387 119.227 18.8747 121.06 17.8943C122.892 16.8713 124.96 16.3598 127.261 16.3598C130.032 16.3598 132.526 17.0845 134.742 18.5337C137.001 19.9403 138.77 21.8584 140.049 24.288C141.37 26.675 142.031 29.3817 142.031 32.4081C142.031 35.3918 141.37 38.0985 140.049 40.5281C138.77 42.9151 137.001 44.8119 134.742 46.2185C132.526 47.6251 130.032 48.3284 127.261 48.3284ZM126.111 41.6789C127.816 41.6789 129.307 41.2953 130.586 40.5281C131.908 39.7182 132.931 38.61 133.655 37.2033C134.422 35.7967 134.806 34.177 134.806 32.3441C134.806 30.5112 134.422 28.8915 133.655 27.4849C132.931 26.0783 131.908 24.9913 130.586 24.2241C129.307 23.4142 127.816 23.0093 126.111 23.0093C124.406 23.0093 122.892 23.4142 121.571 24.2241C120.25 24.9913 119.227 26.0783 118.502 27.4849C117.777 28.8915 117.415 30.5112 117.415 32.3441C117.415 34.177 117.777 35.7967 118.502 37.2033C119.227 38.61 120.25 39.7182 121.571 40.5281C122.892 41.2953 124.406 41.6789 126.111 41.6789ZM110.83 47.689V1.6543H117.863V24.5438L116.648 31.9605L117.863 39.4411V47.689H110.83Z" fill="#34C759"/>
<path d="M160.706 48.3284C157.722 48.3284 155.015 47.6251 152.586 46.2185C150.156 44.7692 148.216 42.8298 146.767 40.4002C145.361 37.9706 144.657 35.2639 144.657 32.2802C144.657 29.2964 145.361 26.6111 146.767 24.2241C148.216 21.8371 150.156 19.9403 152.586 18.5337C155.015 17.0845 157.722 16.3598 160.706 16.3598C163.732 16.3598 166.46 17.0631 168.889 18.4698C171.319 19.8764 173.237 21.7945 174.644 24.2241C176.093 26.6111 176.818 29.2964 176.818 32.2802C176.818 35.2639 176.093 37.9706 174.644 40.4002C173.237 42.8298 171.319 44.7692 168.889 46.2185C166.46 47.6251 163.732 48.3284 160.706 48.3284ZM160.706 41.5511C162.453 41.5511 163.988 41.1674 165.309 40.4002C166.673 39.5903 167.717 38.4821 168.442 37.0755C169.209 35.6688 169.593 34.0704 169.593 32.2802C169.593 30.4899 169.209 28.9128 168.442 27.5488C167.675 26.1848 166.63 25.1192 165.309 24.352C163.988 23.5421 162.453 23.1372 160.706 23.1372C159.001 23.1372 157.466 23.5421 156.102 24.352C154.781 25.1192 153.736 26.1848 152.969 27.5488C152.245 28.9128 151.882 30.4899 151.882 32.2802C151.882 34.0704 152.245 35.6688 152.969 37.0755C153.736 38.4821 154.781 39.5903 156.102 40.4002C157.466 41.1674 159.001 41.5511 160.706 41.5511Z" fill="#34C759"/>
<path d="M202.423 47.689V29.9784C202.423 27.9325 201.762 26.2488 200.441 24.9274C199.162 23.606 197.5 22.9454 195.454 22.9454C194.09 22.9454 192.875 23.2437 191.809 23.8405C190.744 24.4372 189.913 25.2684 189.316 26.334C188.719 27.3996 188.421 28.6144 188.421 29.9784L185.671 28.4439C185.671 26.0996 186.183 24.0323 187.206 22.242C188.229 20.4092 189.636 18.9813 191.426 17.9583C193.259 16.8926 195.305 16.3598 197.564 16.3598C199.866 16.3598 201.912 16.9566 203.702 18.1501C205.492 19.3009 206.899 20.8141 207.922 22.6896C208.945 24.5225 209.456 26.4406 209.456 28.4439V47.689H202.423ZM181.388 47.689V16.9992H188.421V47.689H181.388Z" fill="#34C759"/>
<path d="M228.112 61.1158C224.872 61.1158 222.038 60.5191 219.608 59.3256C217.178 58.1747 215.218 56.5337 213.726 54.4024L218.329 49.799C219.565 51.3334 220.972 52.4843 222.549 53.2516C224.126 54.0188 226.023 54.4024 228.24 54.4024C231.01 54.4024 233.205 53.6778 234.825 52.2286C236.445 50.8219 237.255 48.8825 237.255 46.4103V38.8657L238.47 32.0884L237.255 25.2471V16.9992H244.288V46.4103C244.288 49.3514 243.606 51.9089 242.242 54.0827C240.878 56.2992 238.981 58.0255 236.551 59.2616C234.122 60.4978 231.309 61.1158 228.112 61.1158ZM227.792 47.0496C225.064 47.0496 222.592 46.389 220.375 45.0676C218.201 43.7036 216.475 41.8494 215.196 39.5051C213.96 37.1607 213.342 34.5393 213.342 31.6408C213.342 28.7423 213.96 26.1422 215.196 23.8405C216.475 21.5387 218.201 19.7272 220.375 18.4058C222.592 17.0418 225.064 16.3598 227.792 16.3598C230.222 16.3598 232.353 16.85 234.186 17.8304C236.019 18.8108 237.447 20.1747 238.47 21.9224C239.493 23.6274 240.004 25.6307 240.004 27.9325V35.477C240.004 37.7361 239.471 39.7395 238.406 41.4871C237.383 43.2347 235.955 44.5987 234.122 45.5791C232.289 46.5595 230.179 47.0496 227.792 47.0496ZM229.199 40.4002C230.904 40.4002 232.396 40.0379 233.674 39.3133C234.953 38.5886 235.933 37.587 236.615 36.3082C237.34 34.9868 237.702 33.4524 237.702 31.7047C237.702 29.9571 237.34 28.444 236.615 27.1652C235.933 25.8438 234.953 24.8208 233.674 24.0962C232.396 23.3716 230.904 23.0093 229.199 23.0093C227.494 23.0093 225.981 23.3716 224.659 24.0962C223.38 24.8208 222.379 25.8438 221.654 27.1652C220.929 28.444 220.567 29.9571 220.567 31.7047C220.567 33.4097 220.929 34.9229 221.654 36.2443C222.379 37.5656 223.38 38.5886 224.659 39.3133C225.981 40.0379 227.494 40.4002 229.199 40.4002Z" fill="#34C759"/>
<path d="M264.888 48.3284C261.904 48.3284 259.198 47.6251 256.768 46.2185C254.338 44.7692 252.399 42.8298 250.95 40.4002C249.543 37.9706 248.84 35.2639 248.84 32.2802C248.84 29.2964 249.543 26.6111 250.95 24.2241C252.399 21.8371 254.338 19.9403 256.768 18.5337C259.198 17.0845 261.904 16.3598 264.888 16.3598C267.914 16.3598 270.642 17.0631 273.072 18.4698C275.502 19.8764 277.42 21.7945 278.826 24.2241C280.276 26.6111 281 29.2964 281 32.2802C281 35.2639 280.276 37.9706 278.826 40.4002C277.42 42.8298 275.502 44.7692 273.072 46.2185C270.642 47.6251 267.914 48.3284 264.888 48.3284ZM264.888 41.5511C266.636 41.5511 268.17 41.1674 269.492 40.4002C270.856 39.5903 271.9 38.4821 272.624 37.0755C273.392 35.6688 273.775 34.0704 273.775 32.2802C273.775 30.4899 273.392 28.9128 272.624 27.5488C271.857 26.1848 270.813 25.1192 269.492 24.352C268.17 23.5421 266.636 23.1372 264.888 23.1372C263.183 23.1372 261.649 23.5421 260.285 24.352C258.963 25.1192 257.919 26.1848 257.152 27.5488C256.427 28.9128 256.065 30.4899 256.065 32.2802C256.065 34.0704 256.427 35.6688 257.152 37.0755C257.919 38.4821 258.963 39.5903 260.285 40.4002C261.649 41.1674 263.183 41.5511 264.888 41.5511Z" fill="#34C759"/>
<path d="M118.694 97.2963V87.45H129.563C132.121 87.45 134.337 86.9598 136.213 85.9794C138.131 84.999 139.601 83.5498 140.624 81.6317C141.647 79.6709 142.159 77.3053 142.159 74.5347C142.159 71.8067 141.626 69.5049 140.56 67.6294C139.537 65.7113 138.088 64.2621 136.213 63.2817C134.337 62.3013 132.121 61.8112 129.563 61.8112H118.182V51.9648H129.627C133.122 51.9648 136.341 52.519 139.282 53.6272C142.223 54.6928 144.78 56.2273 146.954 58.2307C149.128 60.234 150.812 62.621 152.005 65.3916C153.241 68.1623 153.859 71.2312 153.859 74.5986C153.859 78.0086 153.241 81.0989 152.005 83.8695C150.812 86.6401 149.128 89.0271 146.954 91.0304C144.78 93.0338 142.223 94.5896 139.282 95.6978C136.383 96.7635 133.208 97.2963 129.755 97.2963H118.694ZM110.958 97.2963V51.9648H122.402V97.2963H110.958Z" fill="#0B9ED9"/>
<path d="M173.344 97.9996C169.848 97.9996 166.758 97.3176 164.073 95.9536C161.387 94.547 159.277 92.6075 157.743 90.1353C156.209 87.6631 155.441 84.8285 155.441 81.6317C155.441 78.4774 156.187 75.6855 157.679 73.2559C159.171 70.7837 161.196 68.8442 163.753 67.4376C166.353 65.9884 169.273 65.2638 172.512 65.2638C175.667 65.2638 178.459 65.9458 180.888 67.3098C183.36 68.6311 185.279 70.4853 186.643 72.8723C188.049 75.2166 188.753 77.902 188.753 80.9284C188.753 81.5677 188.71 82.2284 188.625 82.9104C188.582 83.5498 188.454 84.2957 188.241 85.1482L160.684 85.2761V78.1151L183.829 77.9233L178.842 81.0562C178.8 79.3086 178.544 77.8807 178.075 76.7725C177.606 75.6216 176.924 74.7478 176.029 74.151C175.134 73.5543 174.004 73.2559 172.64 73.2559C171.234 73.2559 170.019 73.5969 168.996 74.2789C167.973 74.9609 167.184 75.92 166.63 77.1561C166.076 78.3922 165.799 79.8841 165.799 81.6317C165.799 83.4219 166.097 84.9564 166.694 86.2351C167.291 87.4713 168.143 88.409 169.252 89.0484C170.36 89.6877 171.724 90.0074 173.344 90.0074C174.878 90.0074 176.221 89.7517 177.372 89.2402C178.565 88.7287 179.631 87.9401 180.569 86.8745L186.387 92.6928C184.852 94.4404 182.977 95.7618 180.76 96.6569C178.587 97.552 176.114 97.9996 173.344 97.9996Z" fill="#0B9ED9"/>
<path d="M200.574 97.2963L187.851 66.031H199.743L207.863 92.3731H203.324L211.38 66.031H223.144L210.421 97.2323L200.574 97.2963Z" fill="#0B9ED9"/>
</svg>
